<svg width="166" height="22" viewBox="0 0 166 22" fill="none" xmlns="http://www.w3.org/2000/svg">
<circle cx="9" cy="4" r="3" fill="#5942D8"/>
<circle cx="12" cy="13" r="3" transform="rotate(90 12 13)" fill="#5942D8"/>
<circle cx="6" cy="19" r="3" fill="#5942D8"/>
<circle cx="3" cy="10" r="3" transform="rotate(90 3 10)" fill="#5942D8"/>
<path d="M159.925 18.5258V11.9724C159.925 11.5439 159.896 11.0692 159.837 10.5483C159.778 10.0274 159.639 9.52753 159.421 9.04863C159.211 8.56133 158.892 8.16225 158.463 7.85139C158.043 7.54052 157.472 7.38509 156.749 7.38509C156.363 7.38509 155.981 7.44811 155.602 7.57413C155.224 7.70016 154.88 7.9186 154.569 8.22947C154.267 8.53193 154.023 8.95201 153.838 9.48972C153.653 10.019 153.561 10.6996 153.561 11.5313L151.759 10.7626C151.759 9.60314 151.981 8.55293 152.427 7.61194C152.88 6.67095 153.544 5.9232 154.418 5.36869C155.292 4.80577 156.367 4.52431 157.644 4.52431C158.652 4.52431 159.484 4.69235 160.139 5.02842C160.795 5.36448 161.316 5.79297 161.702 6.31388C162.089 6.83478 162.374 7.3893 162.559 7.97741C162.744 8.56553 162.862 9.12425 162.912 9.65355C162.971 10.1745 163 10.5987 163 10.9264V18.5258H159.925ZM150.486 18.5258V0.378075H153.195V9.93081H153.561V18.5258H150.486Z" fill="black"/>
<path d="M148.592 18.5257C147.693 18.6938 146.811 18.7652 145.946 18.74C145.089 18.7232 144.32 18.5678 143.639 18.2737C142.959 17.9712 142.442 17.4965 142.089 16.8496C141.778 16.2615 141.615 15.6608 141.598 15.0474C141.581 14.4341 141.573 13.741 141.573 12.968V1.13422H144.597V12.7916C144.597 13.3377 144.601 13.8166 144.61 14.2283C144.627 14.64 144.715 14.976 144.875 15.2365C145.177 15.7406 145.66 16.022 146.324 16.0809C146.988 16.1397 147.744 16.1061 148.592 15.98V18.5257ZM139.103 7.29687V4.91499H148.592V7.29687H139.103Z" fill="black"/>
<path d="M134.811 18.5258V0H137.848V18.5258H134.811Z" fill="black"/>
<path d="M124.851 18.9038C123.868 18.9038 123.036 18.719 122.355 18.3493C121.675 17.9712 121.158 17.4713 120.805 16.8496C120.461 16.2279 120.289 15.5431 120.289 14.7954C120.289 14.1401 120.398 13.5519 120.616 13.031C120.835 12.5017 121.171 12.048 121.624 11.67C122.078 11.2835 122.666 10.9684 123.389 10.7248C123.935 10.5483 124.573 10.3887 125.304 10.2459C126.044 10.103 126.842 9.97282 127.699 9.85519C128.564 9.72917 129.467 9.59474 130.408 9.45191L129.325 10.0694C129.333 9.12844 129.123 8.4353 128.694 7.99001C128.266 7.54472 127.543 7.32208 126.527 7.32208C125.914 7.32208 125.321 7.46491 124.75 7.75056C124.179 8.03622 123.779 8.52772 123.553 9.22506L120.78 8.35549C121.116 7.20445 121.755 6.28027 122.696 5.58293C123.645 4.88558 124.922 4.53691 126.527 4.53691C127.737 4.53691 128.799 4.73435 129.715 5.12923C130.639 5.52411 131.324 6.17105 131.769 7.07003C132.013 7.54892 132.16 8.04042 132.211 8.54453C132.261 9.04023 132.286 9.58214 132.286 10.1703V18.5257H129.627V15.5768L130.068 16.0556C129.455 17.0386 128.736 17.7612 127.913 18.2233C127.098 18.677 126.077 18.9038 124.851 18.9038ZM125.456 16.4841C126.145 16.4841 126.733 16.3623 127.22 16.1187C127.707 15.875 128.094 15.5768 128.379 15.2239C128.673 14.871 128.871 14.5391 128.972 14.2283C129.131 13.8418 129.22 13.4007 129.236 12.905C129.262 12.4009 129.274 11.9934 129.274 11.6826L130.207 11.9598C129.291 12.1026 128.505 12.2287 127.85 12.3379C127.195 12.4471 126.632 12.5521 126.161 12.653C125.691 12.7454 125.275 12.8504 124.914 12.968C124.561 13.094 124.263 13.2411 124.019 13.4091C123.775 13.5771 123.586 13.7704 123.452 13.9888C123.326 14.2073 123.263 14.4635 123.263 14.7576C123.263 15.0937 123.347 15.3919 123.515 15.6524C123.683 15.9044 123.927 16.1061 124.246 16.2573C124.573 16.4085 124.977 16.4841 125.456 16.4841Z" fill="black"/>
<path d="M113.324 18.9038C111.946 18.9038 110.737 18.6056 109.695 18.009C108.653 17.4125 107.838 16.585 107.25 15.5263C106.67 14.4677 106.38 13.2495 106.38 11.8716C106.38 10.3845 106.666 9.09484 107.237 8.00262C107.809 6.90199 108.603 6.04922 109.619 5.4443C110.636 4.83938 111.812 4.53691 113.148 4.53691C114.559 4.53691 115.757 4.86878 116.74 5.53252C117.731 6.18785 118.466 7.11624 118.945 8.31768C119.424 9.51912 119.605 10.9348 119.487 12.5647H116.475V11.4557C116.467 9.97702 116.206 8.8974 115.694 8.21686C115.181 7.53632 114.375 7.19605 113.274 7.19605C112.031 7.19605 111.106 7.58253 110.501 8.35549C109.896 9.12004 109.594 10.2417 109.594 11.7204C109.594 13.0982 109.896 14.1653 110.501 14.9214C111.106 15.6776 111.989 16.0556 113.148 16.0556C113.896 16.0556 114.538 15.8918 115.076 15.5641C115.622 15.2281 116.042 14.745 116.336 14.1149L119.336 15.0222C118.815 16.2489 118.008 17.2025 116.916 17.883C115.832 18.5636 114.635 18.9038 113.324 18.9038ZM108.636 12.5647V10.2711H118V12.5647H108.636Z" fill="black"/>
<path d="M101.781 18.5258V11.9724C101.781 11.5439 101.752 11.0692 101.693 10.5483C101.634 10.0274 101.495 9.52753 101.277 9.04863C101.067 8.56133 100.748 8.16225 100.319 7.85139C99.8991 7.54052 99.3278 7.38509 98.6053 7.38509C98.2188 7.38509 97.8365 7.44811 97.4584 7.57413C97.0804 7.70016 96.7359 7.9186 96.425 8.22947C96.1226 8.53193 95.8789 8.95201 95.6941 9.48972C95.5092 10.019 95.4168 10.6996 95.4168 11.5313L93.6147 10.7626C93.6147 9.60314 93.8373 8.55293 94.2826 7.61194C94.7363 6.67095 95.4 5.9232 96.2738 5.36869C97.1476 4.80577 98.223 4.52431 99.5001 4.52431C100.508 4.52431 101.34 4.69235 101.995 5.02842C102.651 5.36448 103.172 5.79297 103.558 6.31388C103.945 6.83478 104.23 7.3893 104.415 7.97741C104.6 8.56553 104.718 9.12425 104.768 9.65355C104.827 10.1745 104.856 10.5987 104.856 10.9264V18.5258H101.781ZM92.3418 18.5258V0.378075H95.0513V9.93081H95.4168V18.5258H92.3418Z" fill="black"/>
<path d="M74.5831 18.9038C73.6001 18.9038 72.7684 18.719 72.0878 18.3493C71.4073 17.9712 70.8906 17.4713 70.5377 16.8496C70.1932 16.2279 70.021 15.5431 70.021 14.7954C70.021 14.1401 70.1302 13.5519 70.3487 13.031C70.5671 12.5017 70.9032 12.048 71.3569 11.67C71.8106 11.2835 72.3987 10.9684 73.1212 10.7248C73.6673 10.5483 74.3059 10.3887 75.0368 10.2459C75.7762 10.103 76.5743 9.97282 77.4313 9.85519C78.2967 9.72917 79.1999 9.59474 80.1408 9.45191L79.057 10.0694C79.0654 9.12844 78.8554 8.4353 78.4269 7.99001C77.9984 7.54472 77.2759 7.32208 76.2593 7.32208C75.6459 7.32208 75.0536 7.46491 74.4823 7.75056C73.911 8.03622 73.5119 8.52772 73.2851 9.22506L70.5125 8.35549C70.8486 7.20445 71.4871 6.28027 72.4281 5.58293C73.3775 4.88558 74.6545 4.53691 76.2593 4.53691C77.4691 4.53691 78.5319 4.73435 79.4477 5.12923C80.3719 5.52411 81.0566 6.17105 81.5019 7.07003C81.7456 7.54892 81.8926 8.04042 81.943 8.54453C81.9934 9.04023 82.0186 9.58214 82.0186 10.1703V18.5257H79.3595V15.5768L79.8006 16.0556C79.1873 17.0386 78.4689 17.7612 77.6455 18.2233C76.8306 18.677 75.8098 18.9038 74.5831 18.9038ZM75.188 16.4841C75.877 16.4841 76.4651 16.3623 76.9524 16.1187C77.4397 15.875 77.8262 15.5768 78.1118 15.2239C78.4059 14.871 78.6033 14.5391 78.7042 14.2283C78.8638 13.8418 78.952 13.4007 78.9688 12.905C78.994 12.4009 79.0066 11.9934 79.0066 11.6826L79.9392 11.9598C79.0234 12.1026 78.2379 12.2287 77.5825 12.3379C76.9272 12.4471 76.3643 12.5521 75.8938 12.653C75.4233 12.7454 75.0074 12.8504 74.6461 12.968C74.2933 13.094 73.995 13.2411 73.7514 13.4091C73.5077 13.5771 73.3187 13.7704 73.1842 13.9888C73.0582 14.2073 72.9952 14.4635 72.9952 14.7576C72.9952 15.0937 73.0792 15.3919 73.2472 15.6524C73.4153 15.9044 73.6589 16.1061 73.9782 16.2573C74.3059 16.4085 74.7091 16.4841 75.188 16.4841Z" fill="black"/>
<path d="M62.0381 18.5257V4.91499H64.7224V8.22946L64.3948 7.80097C64.5628 7.34728 64.7854 6.9356 65.0627 6.56592C65.3484 6.18785 65.6886 5.87698 66.0835 5.63333C66.4196 5.40649 66.7893 5.23005 67.1925 5.10403C67.6042 4.9696 68.0243 4.88978 68.4528 4.86458C68.8813 4.83097 69.2972 4.84777 69.7004 4.91499V7.75056C69.2972 7.63294 68.8309 7.59513 68.3016 7.63714C67.7807 7.67915 67.3102 7.82618 66.8901 8.07823C66.47 8.30508 66.1255 8.59493 65.8567 8.94781C65.5962 9.30068 65.403 9.70396 65.2769 10.1577C65.1509 10.6029 65.0879 11.086 65.0879 11.6069V18.5257H62.0381Z" fill="black"/>
<path d="M53.4766 18.9038C52.1155 18.9038 50.9266 18.5972 49.91 17.9838C48.8934 17.3705 48.1037 16.5261 47.5408 15.4507C46.9862 14.3669 46.709 13.1235 46.709 11.7204C46.709 10.2921 46.9946 9.04023 47.566 7.96481C48.1373 6.88939 48.9312 6.04922 49.9478 5.4443C50.9644 4.83938 52.1407 4.53691 53.4766 4.53691C54.846 4.53691 56.0391 4.84358 57.0557 5.4569C58.0723 6.07023 58.862 6.9188 59.425 8.00262C59.9879 9.07803 60.2693 10.3173 60.2693 11.7204C60.2693 13.1319 59.9837 14.3795 59.4124 15.4633C58.8494 16.5387 58.0597 17.3831 57.0431 17.9964C56.0265 18.6014 54.8376 18.9038 53.4766 18.9038ZM53.4766 16.0556C54.6864 16.0556 55.5854 15.6524 56.1735 14.8458C56.7616 14.0392 57.0557 12.9974 57.0557 11.7204C57.0557 10.4013 56.7574 9.35109 56.1609 8.56973C55.5644 7.77997 54.6696 7.38509 53.4766 7.38509C52.6616 7.38509 51.9895 7.56993 51.4601 7.9396C50.9392 8.30088 50.5528 8.80918 50.3007 9.46451C50.0487 10.1114 49.9226 10.8634 49.9226 11.7204C49.9226 13.0394 50.2209 14.0939 50.8174 14.8836C51.4223 15.665 52.3087 16.0556 53.4766 16.0556Z" fill="black"/>
<path d="M42.3707 18.5258V10.2585C42.3707 9.32589 42.1397 8.59914 41.6776 8.07824C41.2155 7.54893 40.5896 7.28428 39.7998 7.28428C39.3125 7.28428 38.8756 7.3977 38.4891 7.62454C38.1027 7.84299 37.796 8.17065 37.5691 8.60754C37.3423 9.03603 37.2289 9.54853 37.2289 10.1451L35.8804 9.35109C35.872 8.4101 36.082 7.58254 36.5105 6.86839C36.9474 6.14584 37.5355 5.58293 38.2749 5.17965C39.0142 4.77637 39.8376 4.57473 40.745 4.57473C42.2489 4.57473 43.3999 5.02842 44.1981 5.9358C45.0047 6.83478 45.4079 8.01942 45.4079 9.48972V18.5258H42.3707ZM26 18.5258V4.91499H28.6843V9.13685H29.0624V18.5258H26ZM34.2043 18.5258V10.2963C34.2043 9.34689 33.9732 8.60754 33.5111 8.07824C33.049 7.54893 32.4189 7.28428 31.6207 7.28428C30.8478 7.28428 30.2261 7.54893 29.7556 8.07824C29.2935 8.60754 29.0624 9.29648 29.0624 10.1451L27.7013 9.23767C27.7013 8.35549 27.9198 7.56153 28.3567 6.85579C28.7936 6.15005 29.3817 5.59553 30.121 5.19225C30.8688 4.78057 31.7048 4.57473 32.6289 4.57473C33.6455 4.57473 34.4941 4.79317 35.1747 5.23006C35.8636 5.65855 36.3761 6.24666 36.7122 6.99442C37.0566 7.73377 37.2289 8.56974 37.2289 9.50233V18.5258H34.2043Z" fill="black"/>
</svg>
