<svg width="42" height="42" viewBox="0 0 42 42" fill="none" xmlns="http://www.w3.org/2000/svg">
<mask id="mask0_9513_24" style="mask-type:luminance" maskUnits="userSpaceOnUse" x="0" y="5" width="42" height="32">
<rect y="5.25" width="42" height="31.5" fill="white"/>
</mask>
<g mask="url(#mask0_9513_24)">
<path fill-rule="evenodd" clip-rule="evenodd" d="M0 5.25H42V36.75H0V5.25Z" fill="#E31D1C"/>
<path fill-rule="evenodd" clip-rule="evenodd" d="M0 7.875V10.5H42V7.875H0ZM0 13.125V15.75H42V13.125H0ZM0 21V18.375H42V21H0ZM0 23.625V26.25H42V23.625H0ZM0 31.5V28.875H42V31.5H0ZM0 36.75V34.125H42V36.75H0Z" fill="#F7FCFF"/>
<rect y="5.25" width="23.625" height="18.375" fill="#2E42A5"/>
<path fill-rule="evenodd" clip-rule="evenodd" d="M9.37127 9.9873L8.25607 10.7641H8.75463L7.67374 11.8569L8.04557 13.3891H8.82809L9.36933 11.9819L10.004 13.3891H10.6576L11.0749 11.8569L9.83936 10.7641H10.4503L9.37127 9.9873ZM10.6706 10.7641L10.2987 9.23191L11.3796 8.13912H10.004L9.36933 6.73187L8.82809 8.13912H7.21436L8.44986 9.23191L8.03256 10.7641H7.37897L6.74433 9.35687L6.20309 10.7641H5.42065L5.04883 9.23193L6.12972 8.13915H4.75406L4.11942 6.7319L3.57818 8.13915H1.96445L3.19995 9.23193L2.73032 10.9563L4.12136 9.98732L5.20036 10.7641H4.58936L5.82486 11.8569L5.40756 13.3891H4.75397L4.11933 11.9819L3.57809 13.3891H1.96436L3.19986 14.4819L2.73023 16.2063L4.12127 15.2373L5.2003 16.0141H4.58936L5.82486 17.1069L5.40756 18.6391H4.75397L4.11933 17.2319L3.57809 18.6391H1.96436L3.19986 19.7319L2.73023 21.4563L4.12127 20.4873L5.4672 21.4563L5.04874 19.7319L6.12963 18.6391H5.63107L6.74627 17.8623L7.8253 18.6391H7.21436L8.44986 19.7319L7.98023 21.4563L9.37127 20.4873L10.7172 21.4563L10.2987 19.7319L11.3796 18.6391H10.8811L11.9963 17.8623L13.0753 18.6391H12.4644L13.6999 19.7319L13.2302 21.4563L14.6213 20.4873L15.9672 21.4563L15.5487 19.7319L16.6296 18.6391H16.1311L17.2463 17.8623L18.3253 18.6391H17.7144L18.9499 19.7319L18.4802 21.4563L19.8713 20.4873L21.2172 21.4563L20.7987 19.7319L21.8796 18.6391H20.504L19.8693 17.2319L19.3281 18.6391H18.5456L18.1737 17.1069L19.2546 16.0141H18.7561L19.8713 15.2373L21.2172 16.2063L20.7987 14.4819L21.8796 13.3891H20.504L19.8693 11.9819L19.3281 13.3891H18.5456L18.1737 11.8569L19.2546 10.7641H18.7561L19.8713 9.9873L21.2172 10.9563L20.7987 9.23191L21.8796 8.13912H20.504L19.8693 6.73187L19.3281 8.13912H17.7144L18.9499 9.23191L18.5326 10.7641H17.879L17.2443 9.35687L16.7031 10.7641H15.9206L15.5487 9.23191L16.6296 8.13912H15.254L14.6193 6.73187L14.0781 8.13912H12.4644L13.6999 9.23191L13.2826 10.7641H12.629L11.9943 9.35687L11.4531 10.7641H10.6706ZM18.5326 16.0141L18.9499 14.4819L17.7144 13.3891H18.3253L17.2463 12.6123L16.1311 13.3891H16.6296L15.5487 14.4819L15.9206 16.0141H16.7031L17.2443 14.6069L17.879 16.0141H18.5326ZM15.7003 16.0141L14.6213 15.2373L13.5061 16.0141H14.0046L12.9237 17.1069L13.2956 18.6391H14.0781L14.6193 17.2319L15.254 18.6391H15.9076L16.3249 17.1069L15.0894 16.0141H15.7003ZM11.0749 17.1069L10.6576 18.6391H10.004L9.36933 17.2319L8.82809 18.6391H8.04557L7.67374 17.1069L8.75463 16.0141H8.25607L9.37127 15.2373L10.4503 16.0141H9.83936L11.0749 17.1069ZM11.4531 16.0141H10.6706L10.2987 14.4819L11.3796 13.3891H10.8811L11.9963 12.6123L13.0753 13.3891H12.4644L13.6999 14.4819L13.2826 16.0141H12.629L11.9943 14.6069L11.4531 16.0141ZM8.03256 16.0141L8.44986 14.4819L7.21436 13.3891H7.8253L6.74627 12.6123L5.63107 13.3891H6.12963L5.04874 14.4819L5.42057 16.0141H6.20309L6.74433 14.6069L7.37897 16.0141H8.03256ZM16.3249 11.8569L15.9076 13.3891H15.254L14.6193 11.9819L14.0781 13.3891H13.2956L12.9237 11.8569L14.0046 10.7641H13.5061L14.6213 9.9873L15.7003 10.7641H15.0894L16.3249 11.8569Z" fill="#F7FCFF"/>
</g>
</svg>
